# xmcd CD database file
#
# Track frame offsets:
#	150
#	14850
#	31512
#
# Disc length: 670 seconds
#
# Revision: 0
# Processed by: cddbd v1.5.1PL0 Copyright (c) Steve Scherf et al.
# Submitted via: CDex 1.51
#
DISCID=1a029c03
DTITLE=THE JERRY LEE PHANTOM - Dr. Lee Ryder
DYEAR=1998
DGENRE=Rock
TTITLE0=Dr.Lee Ryder
TTITLE1=劇場のダンサー
TTITLE2=陽だまりの向こう
EXTD=YEAR: 1998.08/21
EXTT0=
EXTT1=
EXTT2=
PLAYORDER=
